<svg xmlns="http://www.w3.org/2000/svg" xmlns:xlink="http://www.w3.org/1999/xlink" width="11.11in" height="11.11in" viewBox="0 0 1396.5306242724005 1396.5306242724005">
    <g id="cf3bf092-1cb9-498e-8b29-288863efd836">
<rect style="stroke: rgb(193,193,193); stroke-width: 0; stroke-dasharray: none; stroke-linecap: butt; stroke-dashoffset: 0; stroke-linejoin: miter; stroke-miterlimit: 4; fill: none; fill-rule: nonzero; opacity: 1;" x="-698.2653121362002" y="-698.2653121362002" rx="0" ry="0" width="1396.5306242724005" height="1396.5306242724005" transform="matrix(1 0 0 1 698.265312 698.265312)"></rect>
</g>
<g id="50b34d8c-7dcc-4ba0-ac9a-3f757b688656">
<g style="">
		<g id="50b34d8c-7dcc-4ba0-ac9a-3f757b688656-child-0">
<path style="stroke: rgb(193,193,193); stroke-width: 0; stroke-dasharray: none; stroke-linecap: butt; stroke-dashoffset: 0; stroke-linejoin: miter; stroke-miterlimit: 4; fill: rgb(198,40,40); fill-rule: nonzero; opacity: 1;" transform="matrix(1.447536 -0.665383 0.665383 1.447536 1181.762256 1007.877838) matrix(1 0 0 1 0 0)  translate(-37.767517, -57.85)" d="M 28.30 64.50 C 12.00 86.90 10.00 88.10 18.00 115.70 C 5.30 107.10 -3.40 92.20 1.30 76.80 C 5.00 64.00 15.00 54.20 20.20 42.70 C 26.60 29.60 26.40 14.40 26.90 0.00 C 41.80 18.74 42.38 45.13 28.30 64.50 Z M 64.00 0.00 C 63.40 14.40 63.60 29.60 57.20 42.70 C 52.00 54.20 42.00 64.00 38.30 76.80 C 33.60 92.20 42.40 107.10 55.00 115.70 C 47.00 88.10 49.10 86.90 65.30 64.50 C 79.40 45.15 78.87 18.77 64.00 0.00 Z" stroke-linecap="round"></path>
</g>
</g>
</g>
<g style="" id="4addd922-3b5c-45f9-921f-02fd1b1aa1e2">
<g style=""><path d="M-141.38192 67.08966Q-160.37619 69.17303 -176.10923 62.13955Q-191.84227 55.10606 -201.72857 40.94477Q-211.61487 26.78348 -213.64693 8.25705Q-215.04268 -4.46818 -212.07635 -14.54698Q-209.11001 -24.62577 -201.33093 -30.97124Q-193.55186 -37.31670 -180.92020 -38.70220Q-178.20673 -38.99982 -175.11959 -38.91231Q-172.03245 -38.82480 -169.45481 -38.63406Q-164.69431 -38.39866 -163.57150 -38.52182Q-162.07441 -38.68602 -160.60811 -39.13093Q-159.14182 -39.57584 -158.52789 -40.02195L-156.90765 -39.06335Q-159.75269 -33.92192 -162.62851 -29.06120Q-167.09859 -21.46889 -169.56362 -16.74792Q-172.02865 -12.02694 -173.53235 -7.17468Q-175.03604 -2.32242 -174.57421 1.88813Q-174.13291 5.91155 -172.52926 7.58218Q-170.92562 9.25281 -167.74431 8.90387Q-166.34079 8.74993 -165.63330 8.29355Q-165.03084 8.60625 -164.34628 9.66748Q-163.66172 10.72872 -163.44620 12.69364Q-163.18963 15.03284 -164.96469 16.97937Q-166.73975 18.92589 -169.82749 19.26457Q-174.31874 19.75719 -177.87978 16.64412Q-181.44081 13.53105 -182.07711 7.72984Q-182.63131 2.67717 -180.94501 -2.66858Q-179.25871 -8.01434 -176.30471 -13.02568Q-173.35072 -18.03702 -169.01766 -24.28859Q-170.82504 -25.22667 -173.47512 -25.64620Q-176.12521 -26.06573 -179.49365 -25.69626Q-186.23054 -24.95733 -191.03870 -20.87895Q-195.84685 -16.80056 -198.05531 -9.74039Q-200.26377 -2.68023 -199.23748 6.67656Q-197.44147 23.05093 -189.21193 36.35231Q-180.98239 49.65369 -168.94468 56.66638Q-156.90697 63.67907 -144.18174 62.28331Q-133.42144 61.10308 -134.02695 55.58257Q-134.12958 54.64689 -134.56483 53.70035Q-135.00008 52.75381 -135.52949 52.24372Q-133.96602 49.23142 -130.22331 48.82091Q-127.50984 48.52328 -125.23009 49.88302Q-122.95035 51.24276 -122.65272 53.95623Q-122.37562 56.48256 -123.88145 59.15710Q-125.38727 61.83164 -129.64188 64.05014Q-133.89649 66.26863 -141.38192 67.08966Z" fill="rgb(230, 81, 0)" transform="matrix(2.075163 0 0 2.075163 698.265385 1116.742665) translate(2.1054452759017295e-7 -9.401482810705026)"></path><path d="M-155.72044 42.28051L-160.76230 42.92562L-160.95344 41.43174Q-158.98518 39.75645 -157.76827 36.65896Q-156.55136 33.56146 -156.43538 29.27629L-154.77821 -11.17182Q-154.62418 -14.41801 -154.84630 -16.52476Q-155.06841 -18.63151 -155.77905 -20.10637Q-156.48969 -21.58124 -157.91631 -22.34766L-158.10745 -23.84155L-153.06559 -24.48666L-134.67212 -26.84012L-119.08824 24.49768Q-117.89707 28.61561 -115.93948 31.30692Q-113.98188 33.99823 -111.65523 35.12398L-111.46408 36.61787L-116.50595 37.26298L-131.81827 39.22221L-132.00941 37.72832Q-130.80978 36.72076 -130.43475 35.20188Q-130.05971 33.68300 -130.33448 31.53554Q-130.84818 27.52072 -132.64780 24.95154Q-134.44743 22.38236 -137.15509 22.72881Q-138.74235 22.93190 -139.68467 24.09633Q-140.62698 25.26076 -140.50532 26.95333Q-141.25226 27.04890 -142.18704 26.78892Q-143.12182 26.52894 -143.95239 25.97094L-144.02940 27.59403L-144.03694 29.01844Q-144.06396 31.77390 -143.77237 33.68196Q-143.48079 35.59003 -142.74735 36.87218Q-142.01392 38.15434 -140.59926 38.82740L-140.40811 40.32128L-145.44997 40.96640ZM-134.04160 17.39582L-142.75986 -13.65855L-143.13333 -13.61076L-143.73457 16.54833Q-142.44157 15.52882 -140.29411 15.25405Q-138.70686 15.05096 -137.07072 15.60078Q-135.43458 16.15061 -134.04160 17.39582Z" fill="rgb(230, 81, 0)" transform="matrix(2.075163 0 0 2.075163 698.265385 1116.742665) translate(2.1054452759017295e-7 -9.401482810705026)"></path><path d="M-104.83924 35.65989L-109.88274 36.29208L-110.07006 34.79771Q-108.19091 33.13918 -107.66070 30.17932Q-107.13050 27.21946 -107.69245 22.73635L-112.60954 -16.49087Q-113.17149 -20.97398 -114.41585 -23.71140Q-115.66020 -26.44882 -117.89057 -27.59223L-118.07789 -29.08660L-113.03439 -29.71880L-102.76060 -31.00661L-97.71710 -31.63880L-97.52978 -30.14443Q-99.40893 -28.48590 -99.93914 -25.52604Q-100.46935 -22.56618 -99.90739 -18.08307L-94.70933 23.38570L-80.97980 21.66472Q-81.45876 20.87097 -83.91183 17.19410Q-86.00276 14.13590 -86.98994 12.31489Q-87.97713 10.49389 -88.22298 8.53253Q-88.76152 4.23622 -86.93519 1.77795Q-85.10885 -0.68033 -82.49370 -1.00813Q-80.34555 -1.27740 -78.55875 0.11134Q-76.77196 1.50009 -76.25736 4.09182Q-78.48721 4.46619 -79.68902 6.60902Q-80.89084 8.75184 -80.41084 12.58117Q-80.22352 14.07554 -79.52811 16.21771Q-78.83269 18.35988 -78.00303 20.43779Q-76.62417 23.86985 -75.81181 26.56656Q-74.99946 29.26326 -74.67165 31.87841Z" fill="rgb(230, 81, 0)" transform="matrix(2.075163 0 0 2.075163 698.265385 1116.742665) translate(2.1054452759017295e-7 -9.401482810705026)"></path><path d="M-47.27397 30.10838Q-55.52638 30.82365 -61.44534 26.84879Q-67.36429 22.87392 -70.64844 15.50554Q-73.93259 8.13715 -74.76978 -1.52192Q-75.60698 -11.18100 -73.63959 -19.00456Q-71.67221 -26.82811 -66.52542 -31.76210Q-61.37864 -36.69609 -53.12623 -37.41137Q-44.87382 -38.12664 -39.00175 -34.14771Q-33.12969 -30.16878 -29.89243 -22.79633Q-26.65517 -15.42389 -25.81797 -5.76481Q-24.98890 3.80049 -27.04600 11.67906Q-29.10310 19.55764 -34.20300 24.48756Q-39.30289 29.41749 -47.27397 30.10838ZM-48.23309 19.04264Q-42.98155 18.58747 -40.70469 12.15431Q-38.42782 5.72116 -39.32192 -4.59436Q-39.89902 -11.25256 -41.70584 -16.29246Q-43.51266 -21.33236 -46.24567 -23.97717Q-48.97868 -26.62199 -52.16711 -26.34563Q-53.94888 -26.19120 -55.58216 -24.86861Q-57.21544 -23.54602 -58.41890 -21.07966Q-62.01119 -20.01244 -63.84889 -16.68802Q-65.68659 -13.36359 -65.15826 -7.26806L-64.78315 -7.30057Q-64.10924 -11.51619 -61.57664 -13.90878Q-59.04404 -16.30138 -56.13694 -16.55335Q-53.41740 -16.78907 -51.63812 -15.33710Q-49.85883 -13.88512 -49.68814 -11.91580Q-49.56622 -10.50913 -50.43709 -9.11091Q-51.30796 -7.71268 -52.50268 -7.32568Q-53.17101 -8.49602 -54.13505 -9.26279Q-55.09909 -10.02957 -56.41197 -9.91578Q-58.94396 -9.69632 -60.13335 -6.52257Q-61.32273 -3.34882 -60.94071 1.05872Q-60.17666 9.87380 -56.83065 14.68581Q-53.48463 19.49782 -48.23309 19.04264Z" fill="rgb(230, 81, 0)" transform="matrix(2.075163 0 0 2.075163 698.265385 1116.742665) translate(2.1054452759017295e-7 -9.401482810705026)"></path><path d="M-17.36693 26.88670L-22.44989 26.88052L-22.44806 25.37446Q-20.37551 23.96504 -19.47779 21.09520Q-18.58008 18.22535 -18.57458 13.70716L-18.52651 -25.82699Q-18.52102 -30.34518 -19.41175 -33.21720Q-20.30248 -36.08922 -22.37160 -37.50368L-22.36977 -39.00974L-17.28681 -39.00356L1.82137 -38.98032Q8.22213 -38.97254 12.59598 -36.37867Q16.96983 -33.78480 19.08298 -29.87588Q21.19613 -25.96695 21.19110 -21.82528Q21.18412 -16.08341 18.63783 -12.13309Q16.09154 -8.18276 10.81700 -5.45943L17.28774 14.40967Q18.50684 18.17632 20.43311 20.95547Q22.35938 23.73462 24.42815 25.43146L24.42632 26.93752L20.37878 26.93260L9.08330 26.91887L4.00034 26.91269L4.00217 25.40662Q5.69798 24.18501 5.74756 22.11423Q5.79715 20.04345 4.67218 16.27692Q4.57862 15.80616 4.43806 15.28828Q4.29749 14.77040 4.10981 14.29952L-0.57741 -1.51986L-5.75576 -0.49074L-5.77305 13.72273Q-5.77854 18.24092 -4.88781 21.11294Q-3.99707 23.98496 -1.92795 25.39941L-1.92978 26.90547L-7.01275 26.89929ZM0.18878 -12.34378Q3.95486 -13.09223 5.88736 -15.44311Q7.81987 -17.79398 7.82410 -21.27676Q7.82753 -24.10062 5.85323 -26.07974Q3.87893 -28.05885 0.20790 -28.06331L-5.72223 -28.07052L-5.74283 -11.12731Z" fill="rgb(230, 81, 0)" transform="matrix(2.075163 0 0 2.075163 698.265385 1116.742665) translate(2.1054452759017295e-7 -9.401482810705026)"></path><path d="M44.85357 56.35830Q40.82245 55.99402 38.81792 52.55219Q36.81339 49.11036 37.24544 44.32926Q37.47417 41.79809 38.26483 38.27807Q30.17550 34.71168 26.09387 27.58519Q22.01224 20.45869 22.78316 11.92771Q23.06273 8.83406 24.52739 6.74537Q25.99206 4.65669 27.87068 3.73956Q29.74930 2.82243 31.06176 2.94103Q32.55044 -2.02812 36.83967 -5.04297Q41.12890 -8.05781 47.12870 -7.51563Q49.65987 -7.28689 51.86349 -6.04812Q54.06710 -4.80935 55.40609 -2.89261L57.70462 -7.41053Q56.65590 -8.35591 55.56030 -9.30553Q54.46471 -10.25515 53.40752 -11.10678Q47.52464 -16.08049 44.10119 -19.50878Q40.67775 -22.93706 38.51933 -27.29066Q36.36092 -31.64426 36.81839 -36.70660Q37.24197 -41.39395 40.09902 -45.29432Q42.95607 -49.19469 47.77840 -51.31075Q52.60074 -53.42681 58.78805 -52.86768Q61.97544 -52.57964 64.64751 -51.81836Q67.31958 -51.05707 70.23477 -49.84851Q71.87986 -49.22728 73.53342 -48.69981Q75.18698 -48.17233 76.49944 -48.05373L76.68693 -48.03678Q78.46812 -47.87582 79.57586 -48.10651Q80.68361 -48.33720 81.82495 -49.46273L83.26561 -48.67095Q76.42031 -36.71937 69.13281 -23.01201Q68.32409 -21.38386 67.51961 -19.80259Q66.71512 -18.22132 65.91488 -16.68692Q71.24375 -11.85779 75.03850 -7.30906Q78.83326 -2.76033 81.02216 2.82469Q83.21107 8.40972 82.64347 14.69077Q81.72853 24.81544 76.54191 30.96262Q71.35529 37.10980 64.05741 39.42746Q56.75953 41.74512 49.25976 41.06739Q46.16611 40.78782 43.95007 40.20951L43.82300 41.61572Q43.63662 43.67815 44.64722 45.04540Q45.65781 46.41264 47.25151 46.55666Q49.12645 46.72609 50.38696 45.32780Q51.35888 46.07722 51.99449 47.41058Q52.63010 48.74393 52.48608 50.33763Q52.22346 53.24379 50.13221 54.94506Q48.04097 56.64633 44.85357 56.35830ZM41.88037 26.50718Q45.11413 17.91523 49.64284 8.58968Q48.50094 8.67551 48.12595 8.64163Q46.43850 8.48914 44.84424 7.30543Q45.26159 6.87058 45.56373 6.14178Q45.86587 5.41299 45.92517 4.75676Q46.06919 3.16306 45.15658 1.75741Q44.24396 0.35177 42.46277 0.19081Q39.18162 -0.10570 36.46464 2.76769Q33.74765 5.64107 33.33254 10.23468Q32.90896 14.92203 35.05043 19.46313Q37.19190 24.00422 41.88037 26.50718ZM49.25306 28.59112Q54.31540 29.04859 58.79719 27.56334Q63.27899 26.07810 66.23430 22.65917Q69.18961 19.24025 69.63861 14.27165Q70.12996 8.83433 67.61774 4.21247Q65.10551 -0.40939 60.23690 -5.10242Q50.91574 14.37546 46.73883 28.17489Q48.22184 28.49793 49.25306 28.59112ZM67.90395 -26.14746Q67.13703 -26.02774 66.38705 -26.09551Q64.79335 -26.23953 63.53992 -27.53420Q62.28648 -28.82888 62.32828 -30.33730Q63.85365 -30.48300 64.99500 -31.60852Q66.13635 -32.73405 66.30578 -34.60899Q66.60229 -37.89013 64.67512 -40.09630Q62.74795 -42.30248 58.52934 -42.68370Q54.77946 -43.02257 52.30475 -41.26144Q49.83004 -39.50030 49.57589 -36.68789Q49.35563 -34.25047 50.96343 -31.64785Q52.57124 -29.04523 55.08658 -26.54963Q57.60193 -24.05402 62.24012 -19.94889L63.73216 -18.67991Z" fill="rgb(230, 81, 0)" transform="matrix(2.075163 0 0 2.075163 698.265385 1116.742665) translate(2.1054452759017295e-7 -9.401482810705026)"></path><path d="M114.29095 48.10522Q103.46474 46.68498 97.42765 39.15259Q91.39056 31.62019 89.64753 20.66382Q87.90450 9.70745 89.48389 -2.33204Q91.07553 -14.46486 95.60394 -24.74092Q100.13234 -35.01698 107.93860 -40.97067Q115.74486 -46.92437 126.57107 -45.50414Q137.67726 -44.04717 143.86429 -36.21030Q150.05131 -28.37343 151.85706 -17.17149Q153.66281 -5.96955 152.10790 5.88328Q150.55299 17.73610 145.94962 27.85993Q141.34625 37.98375 133.37170 43.77296Q125.39714 49.56218 114.29095 48.10522ZM115.90708 35.78574Q121.41351 36.50810 125.92946 32.11641Q130.44540 27.72472 133.48043 20.14828Q136.51545 12.57185 137.64185 3.98555Q138.82946 -5.06740 138.05022 -13.23914Q137.27099 -21.41088 134.05284 -26.91211Q130.83469 -32.41333 124.95494 -33.18466Q121.40843 -33.64991 117.73174 -30.95190Q114.05506 -28.25388 111.40952 -23.28455Q107.85377 -22.23204 105.07123 -15.85664Q102.28870 -9.48125 101.23577 -1.45492L101.70241 -1.39371Q104.27611 -7.98637 108.03699 -12.04990Q111.79787 -16.11344 117.11765 -15.41556Q119.91753 -15.04826 121.80318 -13.13952Q123.68883 -11.23078 123.30929 -8.33757Q123.07666 -6.56431 122.05305 -5.27456Q121.02943 -3.98481 119.61263 -3.31626Q119.24855 -4.88299 118.00165 -6.23325Q116.75475 -7.58352 114.88816 -7.82839Q112.55493 -8.13448 110.28512 -6.39113Q108.01530 -4.64778 106.31841 -1.12043Q104.62151 2.40691 103.98485 7.26004Q102.40546 19.29953 105.51642 27.06514Q108.62739 34.83076 115.90708 35.78574Z" fill="rgb(230, 81, 0)" transform="matrix(2.075163 0 0 2.075163 698.265385 1116.742665) translate(2.1054452759017295e-7 -9.401482810705026)"></path><path d="M175.57830 71.83104Q171.54919 71.44520 169.56310 67.99270Q167.57701 64.54020 168.03463 59.76148Q168.27691 57.23157 169.08638 53.71583Q161.01624 50.10622 156.97280 42.95799Q152.92935 35.80976 153.74589 27.28303Q154.04200 24.19092 155.51782 22.11010Q156.99365 20.02927 158.87714 19.12221Q160.76064 18.21514 162.07244 18.34076Q163.58769 13.37965 167.89298 10.38779Q172.19828 7.39593 178.19510 7.97020Q180.72501 8.21247 182.92197 9.46302Q185.11892 10.71356 186.44764 12.63743L188.77030 8.13188Q187.72665 7.18090 186.63615 6.22543Q185.54566 5.26997 184.49304 4.41269Q178.63684 -0.59242 175.23179 -4.03897Q171.82674 -7.48551 169.69164 -11.85060Q167.55654 -16.21569 168.04109 -21.27551Q168.48974 -25.96053 171.36761 -29.84556Q174.24548 -33.73059 179.07907 -35.82082Q183.91266 -37.91105 190.09688 -37.31883Q193.28270 -37.01375 195.95065 -36.23818Q198.61861 -35.46261 201.52729 -34.23847Q203.16903 -33.60845 204.81975 -33.07214Q206.47046 -32.53582 207.78227 -32.41020L207.96967 -32.39225Q209.74998 -32.22176 210.85894 -32.44652Q211.96789 -32.67129 213.11525 -33.79069L214.55164 -32.99122Q207.64251 -21.07642 200.28179 -7.40824Q199.46437 -5.78445 198.65144 -4.20750Q197.83851 -2.63056 197.03007 -1.10046Q202.33303 3.75711 206.10339 8.32607Q209.87376 12.89504 212.03276 18.49169Q214.19176 24.08834 213.59056 30.36626Q212.62148 40.48590 207.40205 46.60525Q202.18262 52.72459 194.87244 55.00318Q187.56227 57.28176 180.06624 56.56392Q176.97413 56.26781 174.76121 55.67766L174.62661 57.08316Q174.42921 59.14457 175.43248 60.51720Q176.43574 61.88983 178.02865 62.04237Q179.90266 62.22184 181.17063 60.83031Q182.13852 61.58491 182.76699 62.92165Q183.39546 64.25839 183.24292 65.85130Q182.96475 68.75601 180.86443 70.44607Q178.76412 72.13613 175.57830 71.83104ZM172.76484 41.96445Q176.04451 33.38992 180.62305 24.08873Q179.48070 24.16845 179.10590 24.13256Q177.41929 23.97105 175.83139 22.77883Q176.25105 22.34622 176.55709 21.61905Q176.86312 20.89188 176.92593 20.23598Q177.07848 18.64307 176.17339 17.23256Q175.26831 15.82205 173.48801 15.65157Q170.20849 15.33751 167.47617 18.19632Q164.74386 21.05514 164.30418 25.64645Q163.85553 30.33147 165.97268 34.88396Q168.08983 39.43645 172.76484 41.96445ZM180.12627 44.08780Q185.18609 44.57234 189.67577 43.11109Q194.16544 41.64985 197.13900 38.24678Q200.11256 34.84371 200.58813 29.87759Q201.10857 24.44297 198.62110 19.80774Q196.13364 15.17251 191.29020 10.45350Q181.86497 29.88124 177.61431 43.65813Q179.09557 43.98910 180.12627 44.08780ZM199.06972 -10.55022Q198.30217 -10.43461 197.55257 -10.50639Q195.95966 -10.65893 194.71317 -11.96030Q193.46668 -13.26166 193.51654 -14.76984Q195.04267 -14.90737 196.19002 -16.02677Q197.33737 -17.14617 197.51684 -19.02018Q197.83089 -22.29969 195.91555 -24.51614Q194.00022 -26.73259 189.78370 -27.13638Q186.03569 -27.49530 183.55159 -25.74743Q181.06750 -23.99956 180.79831 -21.18855Q180.56501 -18.75234 182.15887 -16.14116Q183.75273 -13.52998 186.25469 -11.02095Q188.75664 -8.51193 193.37281 -4.38204L194.85804 -3.10510Z" fill="rgb(230, 81, 0)" transform="matrix(2.075163 0 0 2.075163 698.265385 1116.742665) translate(2.1054452759017295e-7 -9.401482810705026)"></path><g clip-path="url(#clip-d516d6f2-8570-42b4-9e72-c9d469458000)"><clipPath id="clip-d516d6f2-8570-42b4-9e72-c9d469458000"><path d="M-141.38192 67.08966Q-160.37619 69.17303 -176.10923 62.13955Q-191.84227 55.10606 -201.72857 40.94477Q-211.61487 26.78348 -213.64693 8.25705Q-215.04268 -4.46818 -212.07635 -14.54698Q-209.11001 -24.62577 -201.33093 -30.97124Q-193.55186 -37.31670 -180.92020 -38.70220Q-178.20673 -38.99982 -175.11959 -38.91231Q-172.03245 -38.82480 -169.45481 -38.63406Q-164.69431 -38.39866 -163.57150 -38.52182Q-162.07441 -38.68602 -160.60811 -39.13093Q-159.14182 -39.57584 -158.52789 -40.02195L-156.90765 -39.06335Q-159.75269 -33.92192 -162.62851 -29.06120Q-167.09859 -21.46889 -169.56362 -16.74792Q-172.02865 -12.02694 -173.53235 -7.17468Q-175.03604 -2.32242 -174.57421 1.88813Q-174.13291 5.91155 -172.52926 7.58218Q-170.92562 9.25281 -167.74431 8.90387Q-166.34079 8.74993 -165.63330 8.29355Q-165.03084 8.60625 -164.34628 9.66748Q-163.66172 10.72872 -163.44620 12.69364Q-163.18963 15.03284 -164.96469 16.97937Q-166.73975 18.92589 -169.82749 19.26457Q-174.31874 19.75719 -177.87978 16.64412Q-181.44081 13.53105 -182.07711 7.72984Q-182.63131 2.67717 -180.94501 -2.66858Q-179.25871 -8.01434 -176.30471 -13.02568Q-173.35072 -18.03702 -169.01766 -24.28859Q-170.82504 -25.22667 -173.47512 -25.64620Q-176.12521 -26.06573 -179.49365 -25.69626Q-186.23054 -24.95733 -191.03870 -20.87895Q-195.84685 -16.80056 -198.05531 -9.74039Q-200.26377 -2.68023 -199.23748 6.67656Q-197.44147 23.05093 -189.21193 36.35231Q-180.98239 49.65369 -168.94468 56.66638Q-156.90697 63.67907 -144.18174 62.28331Q-133.42144 61.10308 -134.02695 55.58257Q-134.12958 54.64689 -134.56483 53.70035Q-135.00008 52.75381 -135.52949 52.24372Q-133.96602 49.23142 -130.22331 48.82091Q-127.50984 48.52328 -125.23009 49.88302Q-122.95035 51.24276 -122.65272 53.95623Q-122.37562 56.48256 -123.88145 59.15710Q-125.38727 61.83164 -129.64188 64.05014Q-133.89649 66.26863 -141.38192 67.08966ZM-155.72044 42.28051L-160.76230 42.92562L-160.95344 41.43174Q-158.98518 39.75645 -157.76827 36.65896Q-156.55136 33.56146 -156.43538 29.27629L-154.77821 -11.17182Q-154.62418 -14.41801 -154.84630 -16.52476Q-155.06841 -18.63151 -155.77905 -20.10637Q-156.48969 -21.58124 -157.91631 -22.34766L-158.10745 -23.84155L-153.06559 -24.48666L-134.67212 -26.84012L-119.08824 24.49768Q-117.89707 28.61561 -115.93948 31.30692Q-113.98188 33.99823 -111.65523 35.12398L-111.46408 36.61787L-116.50595 37.26298L-131.81827 39.22221L-132.00941 37.72832Q-130.80978 36.72076 -130.43475 35.20188Q-130.05971 33.68300 -130.33448 31.53554Q-130.84818 27.52072 -132.64780 24.95154Q-134.44743 22.38236 -137.15509 22.72881Q-138.74235 22.93190 -139.68467 24.09633Q-140.62698 25.26076 -140.50532 26.95333Q-141.25226 27.04890 -142.18704 26.78892Q-143.12182 26.52894 -143.95239 25.97094L-144.02940 27.59403L-144.03694 29.01844Q-144.06396 31.77390 -143.77237 33.68196Q-143.48079 35.59003 -142.74735 36.87218Q-142.01392 38.15434 -140.59926 38.82740L-140.40811 40.32128L-145.44997 40.96640ZM-134.04160 17.39582L-142.75986 -13.65855L-143.13333 -13.61076L-143.73457 16.54833Q-142.44157 15.52882 -140.29411 15.25405Q-138.70686 15.05096 -137.07072 15.60078Q-135.43458 16.15061 -134.04160 17.39582ZM-104.83924 35.65989L-109.88274 36.29208L-110.07006 34.79771Q-108.19091 33.13918 -107.66070 30.17932Q-107.13050 27.21946 -107.69245 22.73635L-112.60954 -16.49087Q-113.17149 -20.97398 -114.41585 -23.71140Q-115.66020 -26.44882 -117.89057 -27.59223L-118.07789 -29.08660L-113.03439 -29.71880L-102.76060 -31.00661L-97.71710 -31.63880L-97.52978 -30.14443Q-99.40893 -28.48590 -99.93914 -25.52604Q-100.46935 -22.56618 -99.90739 -18.08307L-94.70933 23.38570L-80.97980 21.66472Q-81.45876 20.87097 -83.91183 17.19410Q-86.00276 14.13590 -86.98994 12.31489Q-87.97713 10.49389 -88.22298 8.53253Q-88.76152 4.23622 -86.93519 1.77795Q-85.10885 -0.68033 -82.49370 -1.00813Q-80.34555 -1.27740 -78.55875 0.11134Q-76.77196 1.50009 -76.25736 4.09182Q-78.48721 4.46619 -79.68902 6.60902Q-80.89084 8.75184 -80.41084 12.58117Q-80.22352 14.07554 -79.52811 16.21771Q-78.83269 18.35988 -78.00303 20.43779Q-76.62417 23.86985 -75.81181 26.56656Q-74.99946 29.26326 -74.67165 31.87841ZM-47.27397 30.10838Q-55.52638 30.82365 -61.44534 26.84879Q-67.36429 22.87392 -70.64844 15.50554Q-73.93259 8.13715 -74.76978 -1.52192Q-75.60698 -11.18100 -73.63959 -19.00456Q-71.67221 -26.82811 -66.52542 -31.76210Q-61.37864 -36.69609 -53.12623 -37.41137Q-44.87382 -38.12664 -39.00175 -34.14771Q-33.12969 -30.16878 -29.89243 -22.79633Q-26.65517 -15.42389 -25.81797 -5.76481Q-24.98890 3.80049 -27.04600 11.67906Q-29.10310 19.55764 -34.20300 24.48756Q-39.30289 29.41749 -47.27397 30.10838ZM-48.23309 19.04264Q-42.98155 18.58747 -40.70469 12.15431Q-38.42782 5.72116 -39.32192 -4.59436Q-39.89902 -11.25256 -41.70584 -16.29246Q-43.51266 -21.33236 -46.24567 -23.97717Q-48.97868 -26.62199 -52.16711 -26.34563Q-53.94888 -26.19120 -55.58216 -24.86861Q-57.21544 -23.54602 -58.41890 -21.07966Q-62.01119 -20.01244 -63.84889 -16.68802Q-65.68659 -13.36359 -65.15826 -7.26806L-64.78315 -7.30057Q-64.10924 -11.51619 -61.57664 -13.90878Q-59.04404 -16.30138 -56.13694 -16.55335Q-53.41740 -16.78907 -51.63812 -15.33710Q-49.85883 -13.88512 -49.68814 -11.91580Q-49.56622 -10.50913 -50.43709 -9.11091Q-51.30796 -7.71268 -52.50268 -7.32568Q-53.17101 -8.49602 -54.13505 -9.26279Q-55.09909 -10.02957 -56.41197 -9.91578Q-58.94396 -9.69632 -60.13335 -6.52257Q-61.32273 -3.34882 -60.94071 1.05872Q-60.17666 9.87380 -56.83065 14.68581Q-53.48463 19.49782 -48.23309 19.04264ZM-17.36693 26.88670L-22.44989 26.88052L-22.44806 25.37446Q-20.37551 23.96504 -19.47779 21.09520Q-18.58008 18.22535 -18.57458 13.70716L-18.52651 -25.82699Q-18.52102 -30.34518 -19.41175 -33.21720Q-20.30248 -36.08922 -22.37160 -37.50368L-22.36977 -39.00974L-17.28681 -39.00356L1.82137 -38.98032Q8.22213 -38.97254 12.59598 -36.37867Q16.96983 -33.78480 19.08298 -29.87588Q21.19613 -25.96695 21.19110 -21.82528Q21.18412 -16.08341 18.63783 -12.13309Q16.09154 -8.18276 10.81700 -5.45943L17.28774 14.40967Q18.50684 18.17632 20.43311 20.95547Q22.35938 23.73462 24.42815 25.43146L24.42632 26.93752L20.37878 26.93260L9.08330 26.91887L4.00034 26.91269L4.00217 25.40662Q5.69798 24.18501 5.74756 22.11423Q5.79715 20.04345 4.67218 16.27692Q4.57862 15.80616 4.43806 15.28828Q4.29749 14.77040 4.10981 14.29952L-0.57741 -1.51986L-5.75576 -0.49074L-5.77305 13.72273Q-5.77854 18.24092 -4.88781 21.11294Q-3.99707 23.98496 -1.92795 25.39941L-1.92978 26.90547L-7.01275 26.89929ZM0.18878 -12.34378Q3.95486 -13.09223 5.88736 -15.44311Q7.81987 -17.79398 7.82410 -21.27676Q7.82753 -24.10062 5.85323 -26.07974Q3.87893 -28.05885 0.20790 -28.06331L-5.72223 -28.07052L-5.74283 -11.12731ZM44.85357 56.35830Q40.82245 55.99402 38.81792 52.55219Q36.81339 49.11036 37.24544 44.32926Q37.47417 41.79809 38.26483 38.27807Q30.17550 34.71168 26.09387 27.58519Q22.01224 20.45869 22.78316 11.92771Q23.06273 8.83406 24.52739 6.74537Q25.99206 4.65669 27.87068 3.73956Q29.74930 2.82243 31.06176 2.94103Q32.55044 -2.02812 36.83967 -5.04297Q41.12890 -8.05781 47.12870 -7.51563Q49.65987 -7.28689 51.86349 -6.04812Q54.06710 -4.80935 55.40609 -2.89261L57.70462 -7.41053Q56.65590 -8.35591 55.56030 -9.30553Q54.46471 -10.25515 53.40752 -11.10678Q47.52464 -16.08049 44.10119 -19.50878Q40.67775 -22.93706 38.51933 -27.29066Q36.36092 -31.64426 36.81839 -36.70660Q37.24197 -41.39395 40.09902 -45.29432Q42.95607 -49.19469 47.77840 -51.31075Q52.60074 -53.42681 58.78805 -52.86768Q61.97544 -52.57964 64.64751 -51.81836Q67.31958 -51.05707 70.23477 -49.84851Q71.87986 -49.22728 73.53342 -48.69981Q75.18698 -48.17233 76.49944 -48.05373L76.68693 -48.03678Q78.46812 -47.87582 79.57586 -48.10651Q80.68361 -48.33720 81.82495 -49.46273L83.26561 -48.67095Q76.42031 -36.71937 69.13281 -23.01201Q68.32409 -21.38386 67.51961 -19.80259Q66.71512 -18.22132 65.91488 -16.68692Q71.24375 -11.85779 75.03850 -7.30906Q78.83326 -2.76033 81.02216 2.82469Q83.21107 8.40972 82.64347 14.69077Q81.72853 24.81544 76.54191 30.96262Q71.35529 37.10980 64.05741 39.42746Q56.75953 41.74512 49.25976 41.06739Q46.16611 40.78782 43.95007 40.20951L43.82300 41.61572Q43.63662 43.67815 44.64722 45.04540Q45.65781 46.41264 47.25151 46.55666Q49.12645 46.72609 50.38696 45.32780Q51.35888 46.07722 51.99449 47.41058Q52.63010 48.74393 52.48608 50.33763Q52.22346 53.24379 50.13221 54.94506Q48.04097 56.64633 44.85357 56.35830ZM41.88037 26.50718Q45.11413 17.91523 49.64284 8.58968Q48.50094 8.67551 48.12595 8.64163Q46.43850 8.48914 44.84424 7.30543Q45.26159 6.87058 45.56373 6.14178Q45.86587 5.41299 45.92517 4.75676Q46.06919 3.16306 45.15658 1.75741Q44.24396 0.35177 42.46277 0.19081Q39.18162 -0.10570 36.46464 2.76769Q33.74765 5.64107 33.33254 10.23468Q32.90896 14.92203 35.05043 19.46313Q37.19190 24.00422 41.88037 26.50718ZM49.25306 28.59112Q54.31540 29.04859 58.79719 27.56334Q63.27899 26.07810 66.23430 22.65917Q69.18961 19.24025 69.63861 14.27165Q70.12996 8.83433 67.61774 4.21247Q65.10551 -0.40939 60.23690 -5.10242Q50.91574 14.37546 46.73883 28.17489Q48.22184 28.49793 49.25306 28.59112ZM67.90395 -26.14746Q67.13703 -26.02774 66.38705 -26.09551Q64.79335 -26.23953 63.53992 -27.53420Q62.28648 -28.82888 62.32828 -30.33730Q63.85365 -30.48300 64.99500 -31.60852Q66.13635 -32.73405 66.30578 -34.60899Q66.60229 -37.89013 64.67512 -40.09630Q62.74795 -42.30248 58.52934 -42.68370Q54.77946 -43.02257 52.30475 -41.26144Q49.83004 -39.50030 49.57589 -36.68789Q49.35563 -34.25047 50.96343 -31.64785Q52.57124 -29.04523 55.08658 -26.54963Q57.60193 -24.05402 62.24012 -19.94889L63.73216 -18.67991ZM114.29095 48.10522Q103.46474 46.68498 97.42765 39.15259Q91.39056 31.62019 89.64753 20.66382Q87.90450 9.70745 89.48389 -2.33204Q91.07553 -14.46486 95.60394 -24.74092Q100.13234 -35.01698 107.93860 -40.97067Q115.74486 -46.92437 126.57107 -45.50414Q137.67726 -44.04717 143.86429 -36.21030Q150.05131 -28.37343 151.85706 -17.17149Q153.66281 -5.96955 152.10790 5.88328Q150.55299 17.73610 145.94962 27.85993Q141.34625 37.98375 133.37170 43.77296Q125.39714 49.56218 114.29095 48.10522ZM115.90708 35.78574Q121.41351 36.50810 125.92946 32.11641Q130.44540 27.72472 133.48043 20.14828Q136.51545 12.57185 137.64185 3.98555Q138.82946 -5.06740 138.05022 -13.23914Q137.27099 -21.41088 134.05284 -26.91211Q130.83469 -32.41333 124.95494 -33.18466Q121.40843 -33.64991 117.73174 -30.95190Q114.05506 -28.25388 111.40952 -23.28455Q107.85377 -22.23204 105.07123 -15.85664Q102.28870 -9.48125 101.23577 -1.45492L101.70241 -1.39371Q104.27611 -7.98637 108.03699 -12.04990Q111.79787 -16.11344 117.11765 -15.41556Q119.91753 -15.04826 121.80318 -13.13952Q123.68883 -11.23078 123.30929 -8.33757Q123.07666 -6.56431 122.05305 -5.27456Q121.02943 -3.98481 119.61263 -3.31626Q119.24855 -4.88299 118.00165 -6.23325Q116.75475 -7.58352 114.88816 -7.82839Q112.55493 -8.13448 110.28512 -6.39113Q108.01530 -4.64778 106.31841 -1.12043Q104.62151 2.40691 103.98485 7.26004Q102.40546 19.29953 105.51642 27.06514Q108.62739 34.83076 115.90708 35.78574ZM175.57830 71.83104Q171.54919 71.44520 169.56310 67.99270Q167.57701 64.54020 168.03463 59.76148Q168.27691 57.23157 169.08638 53.71583Q161.01624 50.10622 156.97280 42.95799Q152.92935 35.80976 153.74589 27.28303Q154.04200 24.19092 155.51782 22.11010Q156.99365 20.02927 158.87714 19.12221Q160.76064 18.21514 162.07244 18.34076Q163.58769 13.37965 167.89298 10.38779Q172.19828 7.39593 178.19510 7.97020Q180.72501 8.21247 182.92197 9.46302Q185.11892 10.71356 186.44764 12.63743L188.77030 8.13188Q187.72665 7.18090 186.63615 6.22543Q185.54566 5.26997 184.49304 4.41269Q178.63684 -0.59242 175.23179 -4.03897Q171.82674 -7.48551 169.69164 -11.85060Q167.55654 -16.21569 168.04109 -21.27551Q168.48974 -25.96053 171.36761 -29.84556Q174.24548 -33.73059 179.07907 -35.82082Q183.91266 -37.91105 190.09688 -37.31883Q193.28270 -37.01375 195.95065 -36.23818Q198.61861 -35.46261 201.52729 -34.23847Q203.16903 -33.60845 204.81975 -33.07214Q206.47046 -32.53582 207.78227 -32.41020L207.96967 -32.39225Q209.74998 -32.22176 210.85894 -32.44652Q211.96789 -32.67129 213.11525 -33.79069L214.55164 -32.99122Q207.64251 -21.07642 200.28179 -7.40824Q199.46437 -5.78445 198.65144 -4.20750Q197.83851 -2.63056 197.03007 -1.10046Q202.33303 3.75711 206.10339 8.32607Q209.87376 12.89504 212.03276 18.49169Q214.19176 24.08834 213.59056 30.36626Q212.62148 40.48590 207.40205 46.60525Q202.18262 52.72459 194.87244 55.00318Q187.56227 57.28176 180.06624 56.56392Q176.97413 56.26781 174.76121 55.67766L174.62661 57.08316Q174.42921 59.14457 175.43248 60.51720Q176.43574 61.88983 178.02865 62.04237Q179.90266 62.22184 181.17063 60.83031Q182.13852 61.58491 182.76699 62.92165Q183.39546 64.25839 183.24292 65.85130Q182.96475 68.75601 180.86443 70.44607Q178.76412 72.13613 175.57830 71.83104ZM172.76484 41.96445Q176.04451 33.38992 180.62305 24.08873Q179.48070 24.16845 179.10590 24.13256Q177.41929 23.97105 175.83139 22.77883Q176.25105 22.34622 176.55709 21.61905Q176.86312 20.89188 176.92593 20.23598Q177.07848 18.64307 176.17339 17.23256Q175.26831 15.82205 173.48801 15.65157Q170.20849 15.33751 167.47617 18.19632Q164.74386 21.05514 164.30418 25.64645Q163.85553 30.33147 165.97268 34.88396Q168.08983 39.43645 172.76484 41.96445ZM180.12627 44.08780Q185.18609 44.57234 189.67577 43.11109Q194.16544 41.64985 197.13900 38.24678Q200.11256 34.84371 200.58813 29.87759Q201.10857 24.44297 198.62110 19.80774Q196.13364 15.17251 191.29020 10.45350Q181.86497 29.88124 177.61431 43.65813Q179.09557 43.98910 180.12627 44.08780ZM199.06972 -10.55022Q198.30217 -10.43461 197.55257 -10.50639Q195.95966 -10.65893 194.71317 -11.96030Q193.46668 -13.26166 193.51654 -14.76984Q195.04267 -14.90737 196.19002 -16.02677Q197.33737 -17.14617 197.51684 -19.02018Q197.83089 -22.29969 195.91555 -24.51614Q194.00022 -26.73259 189.78370 -27.13638Q186.03569 -27.49530 183.55159 -25.74743Q181.06750 -23.99956 180.79831 -21.18855Q180.56501 -18.75234 182.15887 -16.14116Q183.75273 -13.52998 186.25469 -11.02095Q188.75664 -8.51193 193.37281 -4.38204L194.85804 -3.10510Z" transform="matrix(2.075163 0 0 2.075163 698.265385 1116.742665) translate(2.1054452759017295e-7 -9.401482810705026)"></path></clipPath><path d="M-212.07635 -14.54698C-210.09879 -21.26617 -206.51698 -26.74093 -201.33093 -30.97124C-196.14488 -35.20155 -189.34131 -37.77853 -180.92020 -38.70220C-180.92020 -38.70220 -180.92020 -38.70220 -180.92020 -38.70220C-179.11122 -38.90061 -177.17768 -38.97065 -175.11959 -38.91231C-173.06150 -38.85397 -171.17324 -38.76122 -169.45481 -38.63406C-166.28114 -38.47713 -164.32004 -38.43971 -163.57150 -38.52182C-162.57344 -38.63129 -161.58564 -38.83433 -160.60811 -39.13093C-159.63058 -39.42754 -158.93718 -39.72455 -158.52789 -40.02195L-156.90765 -39.06335C-158.80434 -35.63573 -160.71129 -32.30168 -162.62851 -29.06120C-165.60856 -23.99966 -167.92027 -19.89523 -169.56362 -16.74792C-171.20698 -13.60060 -172.52989 -10.40952 -173.53235 -7.17468C-174.53481 -3.93984 -174.88210 -0.91890 -174.57421 1.88813C-174.52388 2.34701 -174.46221 2.78294 -174.38920 3.19592L-182.18563 4.05106C-182.07772 1.85116 -181.66419 -0.38872 -180.94501 -2.66858C-179.82081 -6.23242 -178.27405 -9.68479 -176.30471 -13.02568C-174.33538 -16.36657 -171.90636 -20.12087 -169.01766 -24.28859C-170.22258 -24.91398 -171.70840 -25.36651 -173.47512 -25.64620C-175.24185 -25.92589 -177.24803 -25.94257 -179.49365 -25.69626C-183.98491 -25.20364 -187.83326 -23.59787 -191.03870 -20.87895C-194.24413 -18.16002 -196.58301 -14.44717 -198.05531 -9.74039C-199.46858 -5.22236 -199.88834 0.00105 -199.31459 5.92983L-213.72529 7.51046C-214.54536 -0.67301 -213.99572 -8.02549 -212.07635 -14.54698ZM-172.52926 7.58218C-172.33258 7.78708 -172.11809 7.96920 -171.88580 8.12853L-181.85673 9.22218C-181.94736 8.74051 -182.02082 8.24307 -182.07711 7.72984C-182.17896 6.80127 -182.22406 5.86528 -182.21240 4.92186L-174.21562 4.04474C-173.84709 5.61576 -173.28497 6.79490 -172.52926 7.58218ZM-164.34628 9.66748C-163.92296 10.32373 -163.63416 11.23914 -163.47988 12.41373L-179.96008 14.22135C-180.58702 13.23875 -181.08326 12.13602 -181.44880 10.91317L-164.76170 9.08286C-164.62584 9.25389 -164.48737 9.44876 -164.34628 9.66748ZM-164.96469 16.97937C-165.27781 17.32274 -165.62157 17.62858 -165.99596 17.89690L-174.24690 18.80190C-175.52930 18.35955 -176.74026 17.64029 -177.87978 16.64412C-177.89578 16.63013 -177.91174 16.61609 -177.92766 16.60202L-163.73833 15.04568C-163.99494 15.71965 -164.40372 16.36422 -164.96469 16.97937ZM-206.60258 32.76520C-206.73974 32.49179 -206.87504 32.21734 -207.00847 31.94185L-192.52067 30.35277C-192.38647 30.62803 -192.25040 30.90239 -192.11245 31.17586L-206.60258 32.76520ZM-208.84138 27.80356C-209.06345 27.25244 -209.27858 26.69746 -209.48677 26.13862L-195.02201 24.55206C-194.81145 25.11014 -194.59385 25.66485 -194.36920 26.21619L-208.84138 27.80356ZM-210.63574 22.79318C-210.89809 21.96060 -211.14585 21.11991 -211.37901 20.27111L-196.94069 18.68745C-196.70423 19.53489 -196.45277 20.37518 -196.18633 21.20831L-210.63574 22.79318ZM-212.02573 17.73844C-212.28982 16.62112 -212.52954 15.49026 -212.74490 14.34586L-198.32722 12.76447C-198.10920 13.90700 -197.86592 15.03747 -197.59739 16.15588L-212.02573 17.73844ZM-213.04571 12.64312C-213.27790 11.23815 -213.47421 9.81324 -213.63464 8.36838L-199.22519 6.78790C-199.06492 8.23056 -198.86715 9.65531 -198.63188 11.06215L-213.04571 12.64312ZM-154.77821 -11.17182C-154.67553 -13.33595 -154.69822 -15.12026 -154.84630 -16.52476C-154.99437 -17.92926 -155.30529 -19.12313 -155.77905 -20.10637C-156.25281 -21.08961 -156.96523 -21.83671 -157.91631 -22.34766L-158.10745 -23.84155L-134.67212 -26.84012L-127.29543 -2.53916L-139.21019 -1.01466L-142.75986 -13.65855L-143.13333 -13.61076L-143.39512 -0.47919L-155.27858 1.04131L-154.77821 -11.17182ZM-156.35320 27.27057L-156.31738 26.39627L-139.82901 24.28656C-140.03333 24.57429 -140.19229 24.88454 -140.30589 25.21730L-156.35320 27.27057ZM-156.13828 22.02472L-156.06664 20.27610L-121.70437 15.87942L-121.19609 17.55383L-156.13828 22.02472ZM-155.92335 16.77887L-155.81589 14.15594L-143.65586 12.60005L-143.70801 15.21590L-155.92335 16.77887ZM-155.70843 11.53302L-155.56515 8.03578L-143.53418 6.49641L-143.60371 9.98421L-155.70843 11.53302ZM-155.49351 6.28716L-155.31440 1.91562L-143.41250 0.39276L-143.49941 4.75251L-155.49351 6.28716ZM-127.04129 -1.70195L-125.77059 2.48409L-137.79598 4.02275L-138.97449 -0.17509L-127.04129 -1.70195ZM-125.26232 4.15850L-124.24576 7.50734L-136.38177 9.06015L-137.32458 5.70188L-125.26232 4.15850ZM-123.48334 10.01896L-122.72092 12.53058L-134.96756 14.09755L-135.67467 11.57885L-123.48334 10.01896ZM-119.92539 21.73987L-119.67125 22.57708L-133.15762 24.30268C-133.41943 24.00739 -133.69385 23.75259 -133.98088 23.53829L-119.92539 21.73987ZM-112.60954 -16.49087C-112.98417 -19.47961 -113.58628 -21.88645 -114.41585 -23.71140C-115.24542 -25.53635 -116.40366 -26.82996 -117.89057 -27.59223L-118.07789 -29.08660L-97.71710 -31.63880L-97.52978 -30.14443C-98.78255 -29.03875 -99.58567 -27.49928 -99.93914 -25.52604C-100.29261 -23.55280 -100.28203 -21.07181 -99.90739 -18.08307L-98.43197 -6.31257L-111.13412 -4.72037L-112.60954 -16.49087ZM-83.91183 17.19410C-83.93561 17.15932 -83.95929 17.12465 -83.98286 17.09011L-79.42941 16.51934C-79.33745 16.79824 -79.24377 17.07631 -79.14838 17.35356L-83.44650 17.89232C-83.59519 17.66896 -83.75030 17.43622 -83.91183 17.19410ZM-86.98994 12.31489C-87.14751 12.02423 -87.29092 11.73089 -87.42016 11.43487L-80.54777 10.57342C-80.54612 11.11574 -80.51158 11.69104 -80.44414 12.29932L-86.56613 13.06671C-86.72120 12.80063 -86.86247 12.55003 -86.98994 12.31489ZM-86.93519 1.77795C-85.71763 0.13910 -84.23713 -0.78959 -82.49370 -1.00813C-81.06160 -1.18764 -79.74995 -0.81449 -78.55875 0.11134C-78.06439 0.49557 -77.64307 0.94887 -77.29479 1.47123L-87.53200 2.75445C-87.36025 2.40782 -87.16131 2.08232 -86.93519 1.77795ZM-76.25736 4.09182C-77.74392 4.34140 -78.88781 5.18047 -79.68902 6.60902C-79.76206 6.73925 -79.83044 6.87415 -79.89416 7.01372L-88.27519 8.06427C-88.36645 7.12622 -88.36902 6.25710 -88.28291 5.45691L-76.28600 3.95311C-76.27614 3.99906 -76.26660 4.04529 -76.25736 4.09182ZM-107.91518 20.95945L-108.02248 20.10345L-95.32034 18.51125L-95.21304 19.36725L-107.91518 20.95945ZM-108.55897 15.82348L-108.77357 14.11150L-96.07142 12.51930L-95.85683 14.23128L-108.55897 15.82348ZM-109.20276 10.68752L-109.52465 8.11954L-96.82251 6.52734L-96.50061 9.09532L-109.20276 10.68752ZM-109.84654 5.55156L-110.27574 2.12758L-97.57359 0.53538L-97.14440 3.95936L-109.84654 5.55156ZM-110.49033 0.41560L-111.02682 -3.86437L-98.32468 -5.45657L-97.78819 -1.17660L-110.49033 0.41560ZM-70.64844 15.50554C-70.67798 15.43925 -70.70738 15.37283 -70.73662 15.30626L-57.19825 14.13283C-57.07843 14.32136 -56.95589 14.50569 -56.83065 14.68581C-56.76833 14.77543 -56.70551 14.86368 -56.64221 14.95056L-70.35810 16.13938C-70.45654 15.93024 -70.55332 15.71895 -70.64844 15.50554ZM-74.76978 -1.52192C-74.79881 -1.85685 -74.82531 -2.19012 -74.84929 -2.52174L-60.84103 -3.73590C-61.00264 -2.65601 -61.06252 -1.49625 -61.02067 -0.25662L-74.51540 0.91303C-74.61356 0.11389 -74.69835 -0.69776 -74.76978 -1.52192ZM-73.63959 -19.00456C-72.32800 -24.22026 -69.95661 -28.47278 -66.52542 -31.76210C-63.09424 -35.05143 -58.62784 -36.93452 -53.12623 -37.41137C-47.62462 -37.88822 -42.91646 -36.80033 -39.00175 -34.14771C-35.08704 -31.49509 -32.05060 -27.71130 -29.89243 -22.79633C-28.65607 -19.98069 -27.68227 -16.91491 -26.97102 -13.59899L-40.55642 -12.42148C-40.88558 -13.78284 -41.26872 -15.07317 -41.70584 -16.29246C-42.91038 -19.65239 -44.42366 -22.21396 -46.24567 -23.97717C-48.06767 -25.74038 -50.04149 -26.52987 -52.16711 -26.34563C-53.35496 -26.24267 -54.49331 -25.75033 -55.58216 -24.86861C-56.67102 -23.98688 -57.61659 -22.72390 -58.41890 -21.07966C-60.81376 -20.36818 -62.62376 -18.90430 -63.84889 -16.68802C-64.75221 -15.05391 -65.22677 -12.91764 -65.27257 -10.27921L-74.97330 -9.43840C-74.83554 -12.82791 -74.39097 -16.01663 -73.63959 -19.00456ZM-25.81797 -5.76481C-25.74659 -4.94123 -25.69125 -4.12702 -25.65196 -3.32220L-39.15183 -2.15210C-39.19302 -2.94719 -39.24971 -3.76128 -39.32192 -4.59436C-39.35104 -4.93029 -39.38250 -5.26313 -39.41631 -5.59288L-25.91155 -6.76340C-25.87819 -6.43260 -25.84700 -6.09974 -25.81797 -5.76481ZM-27.04600 11.67906C-27.10951 11.92228 -27.17519 12.16339 -27.24304 12.40239L-41.29785 13.62059C-41.16481 13.33233 -41.03745 13.03265 -40.91577 12.72155L-27.00371 11.51572C-27.01770 11.57023 -27.03180 11.62468 -27.04600 11.67906ZM-65.15826 -7.26806L-64.78315 -7.30057C-64.65844 -8.08072 -64.48598 -8.81405 -64.26578 -9.50055L-49.75619 -10.75816C-49.86874 -10.20811 -50.09570 -9.65902 -50.43709 -9.11091C-51.01767 -8.17875 -51.70620 -7.58368 -52.50268 -7.32568C-52.94823 -8.10590 -53.49236 -8.75161 -54.13505 -9.26279C-54.77774 -9.77398 -55.53672 -9.99164 -56.41197 -9.91578C-58.09996 -9.76947 -59.34042 -8.63840 -60.13335 -6.52257C-60.25730 -6.19182 -60.36844 -5.85103 -60.46679 -5.50019L-74.95177 -4.24471C-75.02032 -5.72043 -75.03698 -7.16219 -75.00177 -8.57001L-65.27252 -9.41329C-65.26103 -8.72936 -65.22294 -8.01428 -65.15826 -7.26806ZM-61.57664 -13.90878C-59.88824 -15.50385 -58.07501 -16.38537 -56.13694 -16.55335C-54.32391 -16.71050 -52.82430 -16.30508 -51.63812 -15.33710C-50.45193 -14.36911 -49.80194 -13.22868 -49.68814 -11.91580C-49.67992 -11.82092 -49.67508 -11.72607 -49.67363 -11.63125L-63.94125 -10.39460C-63.37468 -11.78338 -62.58648 -12.95477 -61.57664 -13.90878ZM-72.32337 11.11416C-72.50207 10.55981 -72.67200 9.99725 -72.83318 9.42649L-59.70074 8.28824C-59.53832 8.87120 -59.36241 9.43324 -59.17300 9.97435L-72.32337 11.11416ZM-73.66738 6.03509C-73.84423 5.19884 -74.00419 4.34678 -74.14726 3.47890L-60.81551 2.32338C-60.71628 3.21148 -60.59601 4.06698 -60.45473 4.88989L-73.66738 6.03509ZM-26.79540 -12.74829C-26.52128 -11.36728 -26.29155 -9.94398 -26.10621 -8.47839L-39.61693 -7.30735C-39.81348 -8.79647 -40.06124 -10.21821 -40.36020 -11.57256L-26.79540 -12.74829ZM-25.58072 -0.73059C-25.57579 0.14843 -25.59101 1.01568 -25.62638 1.87115L-39.11414 3.04020C-39.07818 2.19983 -39.06410 1.33269 -39.07190 0.43875L-25.58072 -0.73059ZM-25.88929 5.35764C-25.95466 5.94754 -26.03039 6.53139 -26.11647 7.10919L-39.68527 8.28526C-39.57951 7.71668 -39.48738 7.13141 -39.40888 6.52945L-25.88929 5.35764ZM-18.52651 -25.82699C-18.52285 -28.83912 -18.81793 -31.30252 -19.41175 -33.21720C-20.00557 -35.13188 -20.99219 -36.56071 -22.37160 -37.50368L-22.36977 -39.00974L1.82137 -38.98032C6.08854 -38.97513 9.68008 -38.10792 12.59598 -36.37867C15.51188 -34.64943 17.67421 -32.48183 19.08298 -29.87588C20.49175 -27.26993 21.19445 -24.58639 21.19110 -21.82528C21.18744 -18.82189 20.66273 -16.18613 19.61694 -13.91799L4.22684 -13.93671C4.86224 -14.36727 5.41575 -14.86940 5.88736 -15.44311C7.17570 -17.01036 7.82128 -18.95491 7.82410 -21.27676C7.82639 -23.15933 7.16943 -24.76033 5.85323 -26.07974C4.53703 -27.39914 2.65525 -28.06034 0.20790 -28.06331L-5.72223 -28.07052L-5.73940 -13.94883L-18.54094 -13.96439L-18.52651 -25.82699ZM18.63783 -12.13309C17.85400 -10.91705 16.87628 -9.78822 15.70465 -8.74659L-18.54723 -8.78824L-18.54198 -13.10170L-5.74045 -13.08614L-5.74283 -11.12731L0.18878 -12.34378C1.07897 -12.52069 1.89233 -12.76475 2.62886 -13.07596L19.18472 -13.05583C19.01339 -12.74051 18.83110 -12.43293 18.63783 -12.13309ZM10.81700 -5.45943L11.43049 -3.57563L-18.55352 -3.61209L-18.54933 -7.06286L13.47296 -7.02392C12.65429 -6.47245 11.76897 -5.95095 10.81700 -5.45943ZM-5.75576 -0.49074L-5.75828 1.57963L-18.55982 1.56406L-18.55667 -1.02402L-3.16659 -1.00530L-5.75576 -0.49074ZM-18.57241 11.91636L-18.57136 11.05367L-5.76982 11.06923L-5.77087 11.93193L-18.57241 11.91636ZM-18.56611 6.74021L-18.56401 5.01483L-5.76248 5.03039L-5.76457 6.75578L-18.56611 6.74021ZM12.27368 -0.98653L13.11687 1.60258L0.34315 1.58704L-0.42396 -1.00197L12.27368 -0.98653ZM14.24113 5.05472L14.80325 6.78079L1.87738 6.76507L1.36597 5.03906L14.24113 5.05472ZM16.20857 11.09596L16.48963 11.95899L3.41161 11.94309L3.15590 11.08009L16.20857 11.09596ZM24.52739 6.74537C24.94338 6.15216 25.38441 5.62982 25.85048 5.17836L34.37528 5.94872C34.14449 6.48186 33.94945 7.04170 33.79015 7.62826L24.49735 6.78850C24.50733 6.77409 24.51734 6.75971 24.52739 6.74537ZM36.83967 -5.04297C37.25299 -5.33348 37.67822 -5.59923 38.11537 -5.84020L54.11724 -4.39416C54.59853 -3.93416 55.02814 -3.43364 55.40609 -2.89261L56.07979 -4.21681L59.66060 -3.89322C59.12788 -2.77084 58.60821 -1.66286 58.10159 -0.56928L34.21166 -2.72814C34.97638 -3.57741 35.85238 -4.34901 36.83967 -5.04297ZM47.12870 -7.51563C48.56911 -7.38546 49.92996 -7.00998 51.21126 -6.38918L41.84757 -7.23535C43.48100 -7.59275 45.24138 -7.68618 47.12870 -7.51563ZM57.70462 -7.41053C57.00547 -8.04078 56.29070 -8.67245 55.56030 -9.30553C55.10596 -9.69934 54.65657 -10.08051 54.21213 -10.44904L73.87219 -8.67242C74.27234 -8.21588 74.66111 -7.76143 75.03850 -7.30906C75.91964 -6.25285 76.73584 -5.15473 77.48711 -4.01471L56.92243 -5.87308L57.70462 -7.41053ZM44.10119 -19.50878C41.81890 -21.79430 39.95828 -24.38826 38.51933 -27.29066C37.08039 -30.19306 36.51341 -33.33171 36.81839 -36.70660C37.10078 -39.83150 38.19432 -42.69408 40.09902 -45.29432C42.00372 -47.89457 44.56351 -49.90004 47.77840 -51.31075C50.99330 -52.72146 54.66318 -53.24043 58.78805 -52.86768C60.91298 -52.67566 62.86613 -52.32588 64.64751 -51.81836C66.42889 -51.31083 68.29131 -50.65422 70.23477 -49.84851C71.33150 -49.43436 72.43105 -49.05146 73.53342 -48.69981C74.63579 -48.34815 75.62446 -48.13279 76.49944 -48.05373L76.68693 -48.03678C77.87439 -47.92947 78.83737 -47.95272 79.57586 -48.10651C80.31436 -48.26031 81.06406 -48.71238 81.82495 -49.46273L83.26561 -48.67095C78.70207 -40.70323 73.99114 -32.15025 69.13281 -23.01201C68.59366 -21.92658 68.05593 -20.85677 67.51961 -19.80259C66.98329 -18.74841 66.44838 -17.70985 65.91488 -16.68692C68.57412 -14.27706 70.94683 -11.91958 73.03302 -9.61446L53.03586 -11.42154C49.28914 -14.60019 46.31091 -17.29593 44.10119 -19.50878ZM49.64284 8.58968C48.88157 8.64690 48.37594 8.66422 48.12595 8.64163C47.00098 8.53997 45.90708 8.09457 44.84424 7.30543C44.95250 7.19263 45.05494 7.06501 45.15157 6.92254L54.37679 7.75620C54.13563 8.31660 53.89842 8.87264 53.66517 9.42431L49.42419 9.04106C49.49682 8.89075 49.56970 8.74028 49.64284 8.58968ZM45.15658 1.75741C44.89310 1.35160 44.57533 1.02359 44.20327 0.77340L56.95693 1.92591C56.57488 2.76720 56.20087 3.59961 55.83491 4.42314L45.87334 3.52294C45.76276 2.91159 45.52383 2.32308 45.15658 1.75741ZM67.61774 4.21247C67.36500 3.74750 67.09437 3.28198 66.80586 2.81593L81.49744 4.14356C81.78565 5.01890 82.02454 5.90670 82.21409 6.80695L68.27312 5.54714C68.07501 5.09672 67.85655 4.65183 67.61774 4.21247ZM67.90395 -26.14746C67.39267 -26.06764 66.88704 -26.05033 66.38705 -26.09551C65.32459 -26.19152 64.37554 -26.67109 63.53992 -27.53420C62.70429 -28.39732 62.30042 -29.33169 62.32828 -30.33730C63.34519 -30.43443 64.23410 -30.85817 64.99500 -31.60852C65.75590 -32.35887 66.19282 -33.35903 66.30578 -34.60899C66.50345 -36.79642 65.95990 -38.62552 64.67512 -40.09630C63.39034 -41.56709 61.34175 -42.42955 58.52934 -42.68370C56.02942 -42.90961 53.95455 -42.43552 52.30475 -41.26144C50.65495 -40.08735 49.74533 -38.56283 49.57589 -36.68789C49.42905 -35.06294 49.89157 -33.38293 50.96343 -31.64785C52.03530 -29.91277 53.40969 -28.21336 55.08658 -26.54963C56.76348 -24.88589 59.14799 -22.68564 62.24012 -19.94889L63.73216 -18.67991L67.90395 -26.14746ZM22.79215 11.83165C22.82045 11.53940 22.85676 11.25395 22.90108 10.97529L33.26311 11.91167C33.26539 12.20171 33.27511 12.49133 33.29228 12.78052L22.79215 11.83165ZM31.30101 2.20608C31.61128 1.32535 31.99161 0.49351 32.44199 -0.28944L40.11641 0.40408C38.85578 0.76266 37.66636 1.52139 36.54815 2.68025L31.30101 2.20608ZM78.61928 -2.17998C79.29365 -1.01068 79.90469 0.19948 80.45242 1.45050L64.88356 0.04359C63.92492 -1.20564 62.83894 -2.45872 61.62561 -3.71565L78.61928 -2.17998ZM82.69885 10.31558C82.73806 10.89017 82.75852 11.46949 82.76023 12.05355L69.64488 10.86835C69.59082 10.27529 69.50718 9.69026 69.39397 9.11326L82.69885 10.31558ZM82.46042 16.35749C82.42303 16.64518 82.38289 16.93028 82.33997 17.21282L69.38951 16.04252C69.44389 15.76225 69.49153 15.47782 69.53245 15.18923L82.46042 16.35749ZM47.08408 14.02684C47.21007 13.75008 47.33696 13.47281 47.46474 13.19503L51.94175 13.59961C51.82916 13.87949 51.71767 14.15815 51.60729 14.43559L47.08408 14.02684ZM95.60394 -24.74092C98.62287 -31.59162 102.73443 -37.00154 107.93860 -40.97067C113.14278 -44.93981 119.35360 -46.45096 126.57107 -45.50414C133.97520 -44.53283 139.73961 -41.43488 143.86429 -36.21030C147.98897 -30.98572 150.65322 -24.63945 151.85706 -17.17149C152.79290 -11.36603 153.05176 -5.42946 152.63365 0.63823L138.17000 -1.25918C138.45697 -5.39896 138.41705 -9.39228 138.05022 -13.23914C137.53073 -18.68697 136.19827 -23.24462 134.05284 -26.91211C131.90741 -30.57959 128.87478 -32.67044 124.95494 -33.18466C122.59060 -33.49483 120.18287 -32.75057 117.73174 -30.95190C115.28062 -29.15322 113.17321 -26.59744 111.40952 -23.28455C109.03902 -22.58288 106.92625 -20.10691 105.07123 -15.85664C103.75822 -12.84824 102.73405 -9.56412 101.99872 -6.00430L90.31797 -7.53664C91.48152 -13.64976 93.24351 -19.38452 95.60394 -24.74092ZM101.23577 -1.45492L101.70241 -1.39371C102.19442 -2.65401 102.71897 -3.84499 103.27605 -4.96665L108.24453 -4.31486C107.55053 -3.41185 106.90849 -2.34704 106.31841 -1.12043C106.18465 -0.84240 106.05584 -0.55820 105.93197 -0.26781L89.49600 -2.42396C89.68643 -3.86470 89.90796 -5.28578 90.16059 -6.68720L101.83003 -5.15635C101.59974 -3.95327 101.40166 -2.71947 101.23577 -1.45492ZM108.03699 -12.04990C110.54425 -14.75893 113.57113 -15.88081 117.11765 -15.41556C118.98423 -15.17070 120.54608 -14.41202 121.80318 -13.13952C123.06028 -11.86703 123.56232 -10.26638 123.30929 -8.33757C123.15420 -7.15540 122.73546 -6.13440 122.05305 -5.27456C121.51163 -4.59238 120.88770 -4.04053 120.18128 -3.61903L119.50691 -3.70749C119.22997 -4.60454 118.72821 -5.44646 118.00165 -6.23325C117.17038 -7.13343 116.13256 -7.66515 114.88816 -7.82839C113.33267 -8.03245 111.79833 -7.55336 110.28512 -6.39113C109.80306 -6.02088 109.34039 -5.59028 108.89709 -5.09934L103.69317 -5.78202C104.97766 -8.21953 106.42560 -10.30883 108.03699 -12.04990ZM89.32889 18.43613C89.29149 18.14200 89.25585 17.84730 89.22198 17.55202L103.69188 19.45025C103.72459 19.74807 103.76067 20.04283 103.80010 20.33453L89.32889 18.43613ZM88.84986 13.15278C88.81788 12.57154 88.79247 11.98815 88.77363 11.40262L103.47744 13.33153C103.45919 13.91986 103.45117 14.49886 103.45338 15.06854L88.84986 13.15278ZM88.73873 7.91770C88.74894 7.05529 88.77300 6.18836 88.81090 5.31692L103.97875 7.30671C103.86461 8.18119 103.76906 9.03874 103.69209 9.87935L88.73873 7.91770ZM88.96336 2.72666C89.04767 1.58820 89.15515 0.44219 89.28578 -0.71137L105.30117 1.38960C104.94595 2.44075 104.64644 3.56158 104.40265 4.75206L88.96336 2.72666ZM152.56979 1.49994C152.45693 2.92322 152.30697 4.35369 152.11991 5.79134L137.65386 3.89361C137.84222 2.44632 137.99284 1.01594 138.10572 -0.39753L152.56979 1.49994ZM151.88041 7.50009C151.70799 8.64711 151.51373 9.78173 151.29762 10.90397L136.80323 9.00253C137.03213 7.88284 137.23489 6.74933 137.41151 5.60199L151.88041 7.50009ZM150.76629 13.44452C150.57408 14.29505 150.36888 15.13821 150.15070 15.97402L135.56449 14.06053C135.80341 13.22800 136.02671 12.38721 136.23440 11.53816L150.76629 13.44452ZM149.19303 19.32872C149.01918 19.88864 148.83921 20.44508 148.65313 20.99806L133.90338 19.06312C134.11176 18.51334 134.31275 17.95965 134.50634 17.40205L149.19303 19.32872ZM147.11597 25.14683C147.00399 25.42288 146.89039 25.69800 146.77517 25.97221L131.73759 23.99950C131.87480 23.73106 132.01024 23.45880 132.14390 23.18272L147.11597 25.14683ZM155.51782 22.11010C155.93698 21.51912 156.38079 20.99915 156.84927 20.55018L165.36983 21.36614C165.13620 21.89803 164.93816 22.45683 164.77573 23.04252L155.48755 22.15306C155.49760 22.13870 155.50769 22.12438 155.51782 22.11010ZM167.89298 10.38779C168.30785 10.09949 168.73450 9.83602 169.17293 9.59739L185.16684 11.12901C185.64566 11.59158 186.07259 12.09439 186.44764 12.63743L187.12841 11.31686L190.70744 11.65959C190.16873 12.77911 189.64314 13.88430 189.13067 14.97515L165.25263 12.68852C166.02188 11.84336 166.90200 11.07645 167.89298 10.38779ZM178.19510 7.97020C179.63479 8.10807 180.99361 8.49083 182.27157 9.11847L172.91254 8.22222C174.54786 7.87356 176.30872 7.78956 178.19510 7.97020ZM188.77030 8.13188C188.07453 7.49789 187.36315 6.86241 186.63615 6.22543C186.18392 5.82920 185.73658 5.44563 185.29412 5.07473L204.94440 6.95649C205.34210 7.41516 205.72843 7.87169 206.10339 8.32607C206.97887 9.38698 207.78919 10.48945 208.53434 11.63347L187.97990 9.66512L188.77030 8.13188ZM175.23179 -4.03897C172.96175 -6.33667 171.11504 -8.94054 169.69164 -11.85060C168.26824 -14.76066 167.71806 -17.90229 168.04109 -21.27551C168.34019 -24.39885 169.44903 -27.25554 171.36761 -29.84556C173.28619 -32.43558 175.85668 -34.42733 179.07907 -35.82082C182.30146 -37.21430 185.97407 -37.71364 190.09688 -37.31883C192.22076 -37.11544 194.17201 -36.75522 195.95065 -36.23818C197.72929 -35.72113 199.58817 -35.05456 201.52729 -34.23847C202.62179 -33.81846 203.71927 -33.42968 204.81975 -33.07214C205.92023 -32.71459 206.90773 -32.49395 207.78227 -32.41020L207.96967 -32.39225C209.15654 -32.27859 210.11963 -32.29668 210.85894 -32.44652C211.59824 -32.59637 212.35035 -33.04442 213.11525 -33.79069L214.55164 -32.99122C209.94555 -25.04802 205.18894 -16.52036 200.28179 -7.40824C199.73684 -6.32571 199.19339 -5.25880 198.65144 -4.20750C198.10949 -3.15621 197.56903 -2.12053 197.03007 -1.10046C199.67638 1.32359 202.03645 3.69373 204.11027 6.00998L184.12307 4.09594C180.39340 0.89730 177.42964 -1.81434 175.23179 -4.03897ZM180.62305 24.08873C179.86148 24.14188 179.35576 24.15649 179.10590 24.13256C177.98149 24.02488 176.88999 23.57364 175.83139 22.77883C175.94024 22.66661 176.04337 22.53954 176.14076 22.39759L185.36139 23.28059C185.11723 23.83969 184.87705 24.39445 184.64085 24.94487L180.40198 24.53894C180.47542 24.38901 180.54911 24.23894 180.62305 24.08873ZM176.17339 17.23256C175.91210 16.82534 175.59608 16.49564 175.22536 16.24346L187.97268 17.46418C187.58613 18.30341 187.20768 19.13381 186.83731 19.95537L176.88070 19.00190C176.77339 18.38996 176.53762 17.80019 176.17339 17.23256ZM198.62110 19.80774C198.37085 19.34142 198.10272 18.87446 197.81671 18.40687L212.50097 19.81308C212.78450 20.68995 213.01863 21.57901 213.20337 22.48026L199.26933 21.14590C199.07364 20.69443 198.85756 20.24837 198.62110 19.80774ZM199.06972 -10.55022C198.55802 -10.47315 198.05230 -10.45854 197.55257 -10.50639C196.49063 -10.60809 195.54416 -11.09272 194.71317 -11.96030C193.88217 -12.82787 193.48330 -13.76439 193.51654 -14.76984C194.53396 -14.86153 195.42512 -15.28050 196.19002 -16.02677C196.95492 -16.77304 197.39719 -17.77084 197.51684 -19.02018C197.72621 -21.20652 197.19245 -23.03851 195.91555 -24.51614C194.63866 -25.99378 192.59471 -26.86719 189.78370 -27.13638C187.28502 -27.37566 185.20765 -26.91268 183.55159 -25.74743C181.89553 -24.58219 180.97777 -23.06256 180.79831 -21.18855C180.64278 -19.56441 181.09630 -17.88195 182.15887 -16.14116C183.22144 -14.40037 184.58671 -12.69364 186.25469 -11.02095C187.92266 -9.34827 190.29537 -7.13530 193.37281 -4.38204L194.85804 -3.10510L199.06972 -10.55022ZM153.75540 27.18702C153.78526 26.89492 153.82309 26.60967 153.86890 26.33125L164.22578 27.32305C164.22650 27.61310 164.23468 27.90276 164.25030 28.19204L153.75540 27.18702ZM162.31563 17.60710C162.63061 16.72805 163.01537 15.89826 163.46994 15.11772L171.14054 15.85228C169.87801 16.20412 168.68455 16.95647 167.56016 18.10933L162.31563 17.60710ZM209.65668 13.47423C210.32478 14.64712 210.92935 15.86053 211.47037 17.11447L195.90926 15.62429C194.95732 14.36995 193.87806 13.11108 192.67147 11.84768L209.65668 13.47423ZM213.66935 25.99144C213.70548 26.56623 213.72284 27.14565 213.72143 27.72971L200.61261 26.47437C200.56172 25.88103 200.48122 25.29556 200.37109 24.71796L213.66935 25.99144ZM213.39860 32.03199C213.35968 32.31947 213.31800 32.60436 213.27358 32.88665L200.32957 31.64710C200.38544 31.36712 200.43461 31.08295 200.47707 30.79458L213.39860 32.03199ZM178.03524 29.51213C178.16271 29.23604 178.29108 28.95946 178.42034 28.68237L182.89512 29.11088C182.78103 29.39016 182.66806 29.66822 182.55619 29.94507L178.03524 29.51213Z" fill="rgb(164, 32, 21)" transform="matrix(2.075163 0 0 2.075163 698.265385 1116.742665) translate(2.1054452759017295e-7 -9.401482810705026)"></path></g><g clip-path="url(#clip-bf189e73-6264-4679-a68d-c13d95e01dc3)"><clipPath id="clip-bf189e73-6264-4679-a68d-c13d95e01dc3"><path d="" transform="matrix(2.075163 0 0 2.075163 698.265385 1116.742665) translate(2.1054452759017295e-7 -9.401482810705026)"></path></clipPath><path d="" fill="rgb(164, 32, 21)" transform="matrix(2.075163 0 0 2.075163 698.265385 1116.742665) translate(2.1054452759017295e-7 -9.401482810705026)"></path></g></g></g>
<g id="0596cb93-f54c-43b9-898b-222acee95cf0">
<g style="">
		<g id="0596cb93-f54c-43b9-898b-222acee95cf0-child-0">
<path style="stroke: rgb(193,193,193); stroke-width: 0; stroke-dasharray: none; stroke-linecap: butt; stroke-dashoffset: 0; stroke-linejoin: miter; stroke-miterlimit: 4; fill: rgb(198,40,40); fill-rule: nonzero; opacity: 1;" transform="matrix(1.260757 -0.71125 0.71125 1.260757 209.703296 1216.534176) matrix(1 0 0 1 0 0)  translate(-37.767517, -57.85)" d="M 28.30 64.50 C 12.00 86.90 10.00 88.10 18.00 115.70 C 5.30 107.10 -3.40 92.20 1.30 76.80 C 5.00 64.00 15.00 54.20 20.20 42.70 C 26.60 29.60 26.40 14.40 26.90 0.00 C 41.80 18.74 42.38 45.13 28.30 64.50 Z M 64.00 0.00 C 63.40 14.40 63.60 29.60 57.20 42.70 C 52.00 54.20 42.00 64.00 38.30 76.80 C 33.60 92.20 42.40 107.10 55.00 115.70 C 47.00 88.10 49.10 86.90 65.30 64.50 C 79.40 45.15 78.87 18.77 64.00 0.00 Z" stroke-linecap="round"></path>
</g>
</g>
</g>
<g id="d12043e5-ce0b-4313-8ff1-ec2c8fb3867f">
<g style="">
		<g id="d12043e5-ce0b-4313-8ff1-ec2c8fb3867f-child-0">
<path style="stroke: rgb(193,193,193); stroke-width: 0; stroke-dasharray: none; stroke-linecap: butt; stroke-dashoffset: 0; stroke-linejoin: miter; stroke-miterlimit: 4; fill: rgb(230,81,0); fill-rule: nonzero; opacity: 1;" transform="matrix(0.411711 0 0 0.411711 686.681267 446.913188) matrix(1 0 0 1 0 0)  translate(-959.6, -959.2)" d="M 951.40 43.00 C 954.20 28.70 956.90 14.30 959.70 0.00 C 989.80 104.40 983.00 222.70 1002.10 330.00 C 1010.50 386.50 1027.50 441.30 1044.90 495.50 C 1017.70 532.90 1007.90 583.90 1024.60 627.70 C 1054.50 614.60 1062.80 560.30 1063.10 533.40 C 1063.80 471.40 1114.70 434.20 1149.80 381.20 C 1188.10 323.30 1223.50 263.20 1255.50 201.60 C 1276.00 163.00 1294.00 102.90 1328.70 74.00 C 1310.10 183.90 1264.00 289.40 1239.70 398.60 C 1227.70 448.10 1221.80 498.80 1218.00 549.60 C 1208.50 594.30 1161.30 620.40 1151.80 672.40 C 1188.70 648.20 1213.30 618.00 1226.30 575.40 C 1229.40 557.60 1326.20 517.00 1341.40 507.10 C 1440.90 442.10 1533.00 326.60 1640.50 278.60 C 1599.80 372.10 1497.40 455.00 1438.70 538.70 C 1404.30 587.80 1378.40 640.00 1347.80 691.20 C 1303.60 706.80 1271.80 729.00 1246.10 768.60 C 1291.70 760.40 1325.40 740.70 1355.40 705.20 C 1405.90 694.50 1458.40 694.50 1509.20 684.00 C 1624.50 660.00 1734.30 617.20 1849.00 591.80 C 1797.90 661.30 1639.60 707.70 1565.00 754.30 C 1513.80 786.30 1468.20 823.30 1421.40 861.20 C 1387.00 850.30 1309.80 855.20 1291.40 894.70 C 1335.30 911.30 1386.20 901.60 1423.60 874.40 C 1479.10 891.40 1533.50 907.40 1590.80 917.50 C 1698.40 936.60 1813.80 931.80 1919.20 959.70 C 1816.30 989.40 1699.70 982.60 1593.90 1001.30 C 1548.10 1008.30 1503.80 1020.00 1459.70 1033.70 C 1400.70 1052.10 1356.50 1000.00 1291.50 1024.60 C 1306.10 1055.20 1360.60 1063.40 1389.20 1063.10 C 1447.60 1062.50 1487.40 1116.30 1537.20 1149.30 C 1634.00 1213.40 1756.90 1253.80 1845.30 1328.00 C 1728.20 1328.90 1596.40 1252.00 1480.00 1231.20 C 1452.90 1226.40 1373.70 1231.50 1353.70 1214.20 C 1317.20 1182.50 1295.30 1161.30 1246.80 1151.90 C 1272.20 1191.30 1303.70 1212.90 1347.90 1228.20 C 1374.10 1272.60 1396.20 1318.00 1425.20 1360.80 C 1490.90 1457.90 1580.20 1540.60 1640.70 1640.50 C 1545.40 1598.80 1462.20 1496.10 1376.50 1436.00 C 1347.60 1415.70 1236.40 1372.30 1225.50 1342.00 C 1210.30 1300.00 1189.20 1270.40 1150.70 1246.10 C 1158.50 1288.50 1175.70 1322.90 1209.30 1350.80 C 1229.30 1369.10 1224.20 1448.40 1228.80 1474.80 C 1251.30 1602.60 1302.50 1722.30 1327.60 1848.90 C 1296.90 1829.80 1274.30 1759.30 1258.60 1728.80 C 1225.30 1664.00 1188.90 1600.60 1149.00 1539.70 C 1121.60 1497.80 1089.80 1460.10 1058.20 1421.40 C 1069.10 1387.10 1064.30 1309.60 1024.60 1291.40 C 1008.10 1335.30 1017.80 1386.20 1045.00 1423.60 C 1029.10 1475.70 1013.70 1526.60 1003.60 1580.30 C 993.60 1633.60 986.70 1687.50 980.60 1741.30 C 974.70 1790.30 985.70 1875.50 958.90 1918.40 C 933.50 1810.00 936.00 1694.50 916.40 1584.50 C 907.90 1529.60 891.20 1476.40 874.30 1423.60 C 901.50 1386.20 911.20 1335.30 894.70 1291.40 C 864.70 1304.20 856.50 1358.90 856.10 1385.60 C 855.40 1447.70 804.50 1484.70 769.40 1537.70 C 707.20 1631.80 668.20 1763.50 591.40 1845.20 C 588.00 1749.00 655.60 1627.00 676.80 1533.10 C 689.90 1474.80 695.40 1417.20 702.50 1358.00 C 707.00 1326.20 759.20 1288.50 767.40 1246.50 C 730.60 1270.60 705.80 1300.80 693.00 1343.40 C 690.40 1361.70 597.00 1398.90 580.50 1410.00 C 474.80 1480.40 384.40 1570.50 279.10 1640.60 C 312.40 1550.00 422.80 1461.10 479.30 1381.80 C 513.10 1334.40 541.10 1284.80 567.90 1233.20 C 583.30 1203.50 649.40 1187.60 673.10 1150.40 C 628.70 1158.60 591.10 1177.70 563.70 1214.70 C 509.80 1221.70 456.70 1225.20 403.30 1236.50 C 290.50 1260.40 183.00 1305.00 70.20 1327.30 C 93.80 1295.60 157.60 1275.20 191.70 1257.70 C 256.00 1224.60 318.90 1188.40 379.40 1148.80 C 421.30 1121.40 459.00 1089.60 497.80 1058.00 C 532.00 1068.80 609.60 1064.10 627.80 1024.40 C 584.00 1007.90 533.10 1017.50 495.70 1044.80 C 440.10 1027.70 385.60 1011.70 328.10 1001.60 C 220.60 982.60 105.40 987.20 -0.00 959.50 C 102.90 929.70 219.50 936.60 325.30 917.90 C 371.00 910.90 415.40 899.20 459.50 885.50 C 518.50 867.10 562.70 919.20 627.80 894.60 C 613.20 864.10 558.70 855.80 530.20 856.10 C 471.80 856.70 432.00 802.90 382.20 769.90 C 291.20 709.60 149.10 668.20 74.20 590.60 C 179.20 607.60 280.00 652.80 384.00 676.30 C 443.70 689.80 502.80 694.30 563.10 702.90 C 594.60 737.50 626.00 759.20 672.60 767.40 C 647.00 728.00 615.70 706.40 571.50 691.10 C 546.30 648.80 525.50 605.10 498.00 564.00 C 434.80 469.70 325.70 381.50 278.80 278.70 C 375.20 324.30 458.40 424.10 546.40 485.60 C 592.10 519.40 642.90 542.30 691.40 571.40 C 706.90 615.60 729.10 647.50 768.80 673.10 C 760.80 630.00 743.00 594.90 708.50 566.90 C 688.30 554.10 684.90 412.60 678.70 385.10 C 654.90 279.40 609.90 176.90 592.00 70.30 C 662.20 121.00 709.50 282.00 756.10 356.80 C 787.40 407.20 824.60 451.50 861.30 497.80 C 850.30 532.40 855.40 609.00 894.80 627.80 C 907.30 595.00 904.90 558.00 891.50 525.90 C 868.80 471.60 897.40 432.50 908.90 374.30 C 931.20 264.40 933.30 153.00 951.50 43.10 C 954.10 28.70 945.70 78.20 951.50 43.10 Z" stroke-linecap="round"></path>
</g>
		<g id="d12043e5-ce0b-4313-8ff1-ec2c8fb3867f-child-1">
<path style="stroke: rgb(193,193,193); stroke-width: 0; stroke-dasharray: none; stroke-linecap: butt; stroke-dashoffset: 0; stroke-linejoin: miter; stroke-miterlimit: 4; fill: rgb(255,179,0); fill-rule: nonzero; opacity: 1;" transform="matrix(0.411711 0 0 0.411711 686.681267 446.913188) matrix(1 0 0 1 -0.036592 0.03013)  translate(-959.563409, -959.230131)" d="M 932.60 673.80 C 1300.00 638.50 1355.20 1208.60 987.60 1244.60 C 618.60 1280.70 563.70 706.80 932.60 673.80 C 991.70 668.10 848.30 681.30 932.60 673.80 Z" stroke-linecap="round"></path>
</g>
</g>
</g>

  </svg>